<svg xmlns="http://www.w3.org/2000/svg" viewBox="0 0 180 180" width="180" height="180">
  <defs>
    <linearGradient id="bg" x1="0" y1="0" x2="1" y2="1">
      <stop offset="0%" stop-color="#4F46E5"/>
      <stop offset="100%" stop-color="#3730A3"/>
    </linearGradient>
  </defs>
  <rect width="180" height="180" rx="36" fill="url(#bg)"/>
  <g transform="translate(36 36)" fill="white">
    <rect x="0" y="0" width="45" height="45" rx="6"/>
    <rect x="6" y="6" width="33" height="33" rx="3" fill="#4F46E5"/>
    <rect x="12" y="12" width="21" height="21" rx="2" fill="white"/>

    <rect x="63" y="0" width="45" height="45" rx="6"/>
    <rect x="69" y="6" width="33" height="33" rx="3" fill="#4F46E5"/>
    <rect x="75" y="12" width="21" height="21" rx="2" fill="white"/>

    <rect x="0" y="63" width="45" height="45" rx="6"/>
    <rect x="6" y="69" width="33" height="33" rx="3" fill="#4F46E5"/>
    <rect x="12" y="75" width="21" height="21" rx="2" fill="white"/>

    <rect x="63" y="63" width="14" height="14" rx="2"/>
    <rect x="82" y="63" width="14" height="14" rx="2"/>
    <rect x="63" y="82" width="14" height="14" rx="2"/>
    <rect x="82" y="82" width="14" height="14" rx="2"/>
    <rect x="94" y="94" width="14" height="14" rx="2"/>
  </g>
</svg>
