<svg xmlns="http://www.w3.org/2000/svg" viewBox="0 0 512 512" width="512" height="512">
  <defs>
    <linearGradient id="bg" x1="0" y1="0" x2="1" y2="1">
      <stop offset="0%" stop-color="#4F46E5"/>
      <stop offset="100%" stop-color="#3730A3"/>
    </linearGradient>
  </defs>
  <rect width="512" height="512" rx="96" fill="url(#bg)"/>
  <g transform="translate(96 96)" fill="white">
    <rect x="0" y="0" width="128" height="128" rx="16"/>
    <rect x="16" y="16" width="96" height="96" rx="8" fill="#4F46E5"/>
    <rect x="32" y="32" width="64" height="64" rx="4" fill="white"/>

    <rect x="192" y="0" width="128" height="128" rx="16"/>
    <rect x="208" y="16" width="96" height="96" rx="8" fill="#4F46E5"/>
    <rect x="224" y="32" width="64" height="64" rx="4" fill="white"/>

    <rect x="0" y="192" width="128" height="128" rx="16"/>
    <rect x="16" y="208" width="96" height="96" rx="8" fill="#4F46E5"/>
    <rect x="32" y="224" width="64" height="64" rx="4" fill="white"/>

    <rect x="192" y="192" width="40" height="40" rx="4"/>
    <rect x="248" y="192" width="40" height="40" rx="4"/>
    <rect x="192" y="248" width="40" height="40" rx="4"/>
    <rect x="248" y="248" width="40" height="40" rx="4"/>
    <rect x="280" y="280" width="40" height="40" rx="4"/>
  </g>
</svg>
