<svg xmlns="http://www.w3.org/2000/svg" viewBox="0 0 512 512" width="512" height="512">
  <defs>
    <linearGradient id="bg" x1="0" y1="0" x2="1" y2="1">
      <stop offset="0%" stop-color="#4F46E5"/>
      <stop offset="100%" stop-color="#3730A3"/>
    </linearGradient>
  </defs>
  <rect width="512" height="512" fill="url(#bg)"/>
  <g transform="translate(160 160)" fill="white">
    <rect x="0" y="0" width="80" height="80" rx="10"/>
    <rect x="10" y="10" width="60" height="60" rx="5" fill="#4F46E5"/>
    <rect x="20" y="20" width="40" height="40" rx="3" fill="white"/>

    <rect x="112" y="0" width="80" height="80" rx="10"/>
    <rect x="122" y="10" width="60" height="60" rx="5" fill="#4F46E5"/>
    <rect x="132" y="20" width="40" height="40" rx="3" fill="white"/>

    <rect x="0" y="112" width="80" height="80" rx="10"/>
    <rect x="10" y="122" width="60" height="60" rx="5" fill="#4F46E5"/>
    <rect x="20" y="132" width="40" height="40" rx="3" fill="white"/>

    <rect x="112" y="112" width="25" height="25" rx="3"/>
    <rect x="145" y="112" width="25" height="25" rx="3"/>
    <rect x="112" y="145" width="25" height="25" rx="3"/>
    <rect x="145" y="145" width="25" height="25" rx="3"/>
    <rect x="167" y="167" width="25" height="25" rx="3"/>
  </g>
</svg>
